Patient4_TMGait_0pt7_01_right_27_EMG.mot
version=1
nRows=23
nColumns=33
inDegrees=no
endheader
time	1LAddLong	2LGlutMax	3LGlutMed	4LIliopsoas	5LSemiMemb	6LBicFemLong	7LRecFem	8LVastMed	9LVastLat	10LGasMed	11LTibAnt	12lTibPost	13LPeroneusLong	14LSol	15LExtDigLong	16LFlexDigLong	17RAddLong	18RGlutMax	19RGlutMed	20RIliopsoas	21RSemiMemb	22RBicFemLong	23RRecFem	24RVastMed	25RVastLat	26RGasMed	27RTibAnt	28RTibPost	29RPeroneusLong	30RSol	31RExtDigLong	32RFlexDigLong
30.55	0.010681	-0.13443	0.029144	-0.003662	0.009613	0.016632	0.075226	0.010376	0.049286	0.022736	0.00473	0.20996	-0.093842	-0.16953	-0.039825	0.061035	0.010681	-0.2507	-0.1799	-0.063171	0.009155	1.6119	0.098419	-0.10895	-0.024872	0.003815	0.06958	-0.003662	-0.17883	0.050201	-0.003662	0.00351
30.551	0.012512	-0.14175	0.003204	0.007782	0.055084	0.002747	0.062408	0.015564	-0.004883	-0.013885	0.063477	0.19486	-0.13275	-0.39825	0.010223	-0.31021	0.035706	-0.18341	-0.35873	-0.023956	-0.002747	1.5392	0.069122	-0.13779	-0.026703	0.000763	0.10986	-0.002747	0.00412	0.10162	-0.029602	0.00473
30.552	0.014801	-0.10696	0.013275	0.024567	0.054016	-0.000153	-0.030518	0.014191	0.075226	-0.018311	0.15533	-0.15289	-0.12344	-0.80093	0.027313	0.13382	0.063019	-0.10147	-0.21576	-0.054626	0.010529	1.2448	0.075989	-0.14877	-0.033417	0.00061	0.25879	-0.009918	0.16403	0.017548	0.000916	0.003662
30.553	0.023651	-0.068054	0.037231	-0.002594	0.027161	0.033569	-0.02594	-0.002441	-0.000763	-0.013123	0.18967	0.072327	-0.13168	-0.60577	0.093384	0.047302	0.035553	-0.11276	0.11581	-0.011292	0.049286	1.0432	0.056915	-0.10132	-0.010376	-0.000458	0.28107	-0.003357	0.21072	0.028381	-0.006409	0
30.554	0.01709	-0.086212	0.025787	-0.006714	0.005188	0.050049	-0.04425	-0.015717	0.059204	0.031433	0.23163	0.13962	-0.069885	-0.23178	0.53802	0.075684	-0.006561	-0.19623	0.36789	-0.04837	0.034485	0.81177	0.027618	-0.084991	-0.023193	0.007935	0.14923	-0.001678	0.18616	-0.054169	-0.003052	0.001068
30.555	0.025482	-0.070496	0.059357	0.020905	0.007477	0.012512	-0.06012	-0.004883	0.097809	0.077972	-0.071869	0.075073	-0.009918	0.048981	0.15579	0.060883	-0.02182	-0.17044	0.728	-0.13825	-0.009308	0.58273	0.036469	-0.072632	-0.012512	0.009003	0.024567	-0.004272	0.036774	-0.061493	-0.003052	-0.007172
30.556	0.021973	-0.059357	0.11932	0.028381	0.051117	0.016022	-0.04364	0.000916	0.068054	0.061493	-0.19501	0.25375	0.11002	0.31494	0.40848	-0.43182	-0.028534	-0.15762	1.36	-0.17593	-0.013733	0.42267	0.009308	-0.026703	-0.006104	0.001068	-0.63644	-0.00473	-0.29999	-0.063934	-0.001526	-0.007782
30.557	0.018616	-0.040588	0.14572	0.010681	0.04303	0.014191	0.033569	-0.007324	-0.045013	-0.008698	-0.09491	-0.025177	0.079651	0.26566	0.094757	-0.046844	-0.033569	-0.24262	0.42435	-0.0914	0.015411	0.24139	-0.025482	-0.046844	0.001678	-0.003052	-0.27069	-0.007629	-0.48645	-0.072021	-0.000153	-0.007782
30.558	0.009155	-0.078888	0.10452	0.02182	0.030365	-0.005493	0.059509	-0.002441	-0.005188	-0.012665	-0.067444	-0.15427	0.018921	0.36499	-0.077362	0.21896	-0.038452	-0.31021	-0.44601	-0.043945	0.019073	0.084229	0.032806	-0.02182	0.009613	-0.003662	0.002441	-0.005035	-0.30533	-0.006561	-0.002747	-0.00824
30.559	0.009003	-0.087433	0.05127	-0.011902	0.02594	-0.063782	0.050812	-0.005341	0.02182	-0.020599	-0.012665	-0.10651	-0.067902	0.27847	-0.17822	0.19882	-0.047455	-0.18906	-0.20447	-0.019073	0.008698	-0.071106	0.036011	-0.02594	-0.007782	-0.000153	0.055695	-0.005951	0.012207	-0.017548	0.002747	0.001373
30.56	0.020142	-0.098267	-0.019226	-0.00351	0.010986	-0.069733	0.034637	-0.005798	-0.014801	-0.003662	-0.054321	-0.086365	-0.063019	0.044708	-0.58334	-0.045319	-0.030975	-0.17792	-0.10437	-0.036163	-0.015869	-0.16357	0.033722	-0.050049	-0.011444	-0.009155	-0.045166	-0.016937	0.17136	-0.028534	0.001831	0.000458
30.561	0.012512	-0.089874	0.011749	0.005646	0.01236	-0.042267	-0.007629	-0.007629	0.023346	0.020752	-0.015869	-0.030365	-0.063171	-0.12222	-0.24124	-0.075531	-0.029755	-0.17075	-0.075989	-0.025177	0.021515	-0.29175	0.046844	-0.00824	-0.013428	-0.006561	-0.059814	-0.015869	-0.026855	0.035858	-0.002136	-0.002136
30.562	0.019989	-0.078888	0.095062	-0.00351	0.001984	-0.009766	0.008087	-0.003967	0.062256	0.036163	0.024567	-0.028229	0.006866	0.08667	-0.42236	-0.067596	-0.041809	-0.18417	0.12146	0.015869	-0.031128	-0.4361	0.028839	-0.025635	-0.025482	0.001831	-0.054016	-0.014801	-0.000763	0.006866	-0.00061	-0.001984
30.563	0.012817	-0.062256	0.23346	-0.005493	0.011444	0.023193	0.065613	0.003815	0.085602	0.019226	0.067139	-0.020752	0.082855	0.27679	-0.020142	-0.032654	-0.00885	-0.14603	0.5542	0.067139	-0.075531	-0.57861	0.085754	-0.095673	-0.039825	-0.002136	-0.037994	-0.006714	0.31937	-0.031128	-0.00351	-0.003967
30.564	0.014343	-0.11337	0.10056	-0.01297	-0.004578	0.01709	0.035553	0.005646	0.11719	0.018768	-0.008698	-0.004425	0.080872	0.42023	0.28168	0.03067	0.011139	-0.21042	0.33829	0.058899	-0.27115	-0.63797	0.07309	-0.12634	-0.039673	-0.006714	-0.035858	-0.018005	0.066223	-0.056915	0.001526	0.000153
30.565	0.014343	-0.11765	0.022583	0.002594	-0.001373	0.02182	0.052338	0.005035	0.077667	0.018921	-0.004578	0.002136	0.04425	0.12283	-0.037231	-0.000916	0.027771	-0.1181	0.10651	0.024261	-0.40848	-0.67184	0.059204	-0.086517	-0.051727	-0.005188	0.029144	-0.014191	-0.15991	-0.042572	-0.00412	0.007935
30.566	0.019073	-0.11719	0.054932	0.007935	-0.003052	0.026245	0.11612	0.006561	0.042877	-0.012817	-0.042267	-0.010071	0.073853	0.058899	-0.067139	-0.018616	0.010376	-0.076447	-0.12375	0.045013	-0.44388	-0.69183	0.090027	-0.080566	-0.040588	0.000458	0.073395	-0.014801	-0.15121	-0.014648	-0.002594	0.006561
30.567	0.017853	-0.092773	0.10651	0.013733	0.014801	-0.063934	0.18021	0.000153	0.057678	0.00351	-0.099945	-0.006104	0.08728	0.10605	-0.43594	-0.011749	-0.011139	-0.10635	-0.31555	0.024261	0.094147	-0.66147	0.062714	-0.081635	-0.029297	-0.008698	0.039368	-0.012207	0.12665	0.016785	-0.005341	0.00824
30.568	0.01709	-0.086517	0.10574	0.018311	0.010986	-0.070038	0.23346	0.001831	0.11017	-0.032806	0.047913	-0.005493	-0.046387	-0.072937	-0.1236	-0.03067	-0.056763	-0.12543	-0.06485	0.000458	0.41931	-0.63446	0.059204	-0.052795	-0.007782	-0.001831	0.017242	-0.020752	0.33615	0.012512	0.000763	0.003967
30.569	0.021057	-0.14282	0.046387	0.019073	0.031433	-0.048218	0.15732	0.002289	0.078583	0.057373	0.13062	0.003204	-0.052338	0.053253	0.20416	-0.2655	-0.04776	-0.15579	0.36835	-0.022736	0.25971	-0.58823	0.02655	-0.085449	-0.02533	-0.001373	0.032654	-0.018158	-0.13016	-0.055237	-0.000458	0.001373
30.57	0.022125	-0.15625	0.059204	0.009766	0.029297	-0.00946	-0.006104	0.009003	0.047302	0.20416	0.18875	-0.000305	-0.074768	-0.1149	0.15411	0.0914	-0.051727	-0.15854	1.4613	-0.084229	0.088501	-0.57709	0.055237	-0.06073	-0.001831	-0.001068	0.065613	-0.020447	-0.46463	-0.064392	-0.006866	0.002441
30.571	0.017853	-0.14358	0.079346	0.010681	0.019684	0.009613	0.001373	0.010071	0.049896	0.11261	0.056152	-0.008545	-0.13809	-0.19806	0.14313	0.25055	-0.01297	-0.1358	1.2379	-0.067444	-0.036469	-0.5693	0.054016	-0.0383	-0.014954	-0.003815	0.073547	-0.019989	-0.17624	-0.021973	-0.000916	0.002899
30.572	0.011139	-0.18829	0.071869	-0.002899	0.00946	0.021362	-0.06485	0.003967	-0.00061	0.10178	-0.10681	0.009155	0.046234	-0.052795	0.51285	-0.31326	0.013733	-0.21866	0.89539	0.019073	-0.060577	-0.58456	0.022278	-0.045471	-0.019379	-0.00946	0.063782	-0.024414	0.3157	0.020752	-0.002136	0.004578
